<?xml version="1.0" encoding="UTF-8"?>
<svg id="Layer_1" xmlns="http://www.w3.org/2000/svg" version="1.1" viewBox="0 0 1024 1024">
  <!-- Generator: Adobe Illustrator 29.8.3, SVG Export Plug-In . SVG Version: 2.1.1 Build 3)  -->
  <defs>
    <style>
      .st0 {
        fill: #b89660;
      }

      .st1 {
        fill: #06080f;
      }
    </style>
  </defs>
  <path class="st1" d="M0,0h1024v1024H0V0Z"/>
  <path class="st0" d="M509.89,95.1l1.5-4.58c1.82,116.6,36.44,226.75,121.52,309.77,63.64,62.09,147.7,98.25,235.36,109.23,13.49,1.69,34.16,3.95,47.67,3.85l4.56.94c-1.19,1.04-.54.63-1.92,1.25-19.53.1-39.93,2.45-59.26,5.16-86.85,12.21-169.64,50.32-232,112.33-66.42,66.04-103.69,157.04-112.42,249.39-1.25,13.28-3.64,32.87-3.57,46.19,0,.53.01,1.06.03,1.59l-1.37.05c-1.57-237.92-165.78-406.07-403.19-414.8-2.27-.6-5.35-.76-7.77-.97l5.06-1.08c.65,0,1.3,0,1.95-.01,104.51-1.47,218.49-45.54,290.97-121.6,64.03-67.19,100.71-154.37,109.81-246.28,1.51-15.23,3.34-35.41,3.07-50.43Z"/>
  <path class="st1" d="M595.69,409.09c58.17-4.96,109.31,38.27,114.09,96.46,4.79,58.18-38.59,109.19-96.79,113.81-57.96,4.6-108.71-38.56-113.48-96.51-4.77-57.95,38.25-108.83,96.18-113.76Z"/>
  <path class="st0" d="M106.8,515.47c-4.06.19-19.84.16-23.11-1.06,6.67-1.18,13.64-1.13,20.4-1l-5.06,1.08c2.42.22,5.5.38,7.77.97Z"/>
  <path class="st0" d="M915.95,513.37c5.83-.06,16.71.15,22.36,1.31-5.05.91-14.43.95-19.72.88,1.38-.62.74-.21,1.92-1.25l-4.56-.94Z"/>
  <path class="st0" d="M509.89,95.1c-.07-5.46-.29-12.8.95-18.08.72,5.48.67,7.94.55,13.5l-1.5,4.58Z"/>
  <path class="st0" d="M511.34,940.37c.16,2.52.35,6.65-.67,8.85-1.12-3.03-.8-6.06-.79-9.35l1.45.5Z"/>
  <path class="st0" d="M509.99,930.27l1.37-.05-.02,10.16-1.45-.5.1-9.6Z"/>
</svg>